<svg width="1086" height="718" viewBox="0 0 1086 718" fill="none" xmlns="http://www.w3.org/2000/svg">
<path d="M505.922 3.52289C526.803 1.66117 551.903 4.01187 573.114 3.80839C579.329 3.74876 581.832 10.8316 584.69 15.6999C589.897 11.961 591.679 8.10582 597.3 4.79017C611.962 4.23358 729.296 9.49134 737.95 13.0545C739.997 16.2308 740.31 34.829 741.354 40.9495C744.493 35.1589 750.857 16.8398 755.454 14.0008C756.456 13.3829 772.105 14.4467 773.982 16.1946C776.437 18.4796 776.426 22.8216 777.773 26.536C781.517 22.7375 784.328 16.4712 788.787 16.7169C793.056 16.9521 798.221 17.558 802.521 18.0023C813.185 19.0748 823.838 20.2522 834.481 21.5344C854.865 23.7315 875.222 26.1926 895.542 28.9171C904.938 30.1423 916.307 31.4021 925.497 33.0843C926.25 31.0724 925.985 29.3291 926.552 27.0995C928.016 21.338 934.379 17.7183 939.162 14.9497C966.471 1.82014 1007.82 1.56098 1036.61 10.1079C1041.66 11.6845 1046.15 13.8105 1049.77 17.7684C1050.58 18.6506 1053.18 21.2626 1054.27 21.7693C1064.44 26.4807 1093.91 35.4398 1081.98 51.5811L1081.9 52.1564C1081.42 55.4266 1080.26 58.5255 1079.27 61.6669C1076 72.1013 1072.49 82.4677 1069.32 92.9344C1061.59 119.186 1054.42 145.599 1047.81 172.155C1024.65 265.919 1008.8 361.341 1000.41 457.559C999.438 468.373 999.353 479.519 998.664 490.39C994.729 552.314 997.36 614.309 1004.7 675.837C1005.2 679.979 998.468 683.251 996.755 687.801C996.347 688.718 993.918 692.52 993.017 692.987C985.185 697.043 980.168 703.619 973.693 708.773C971.8 710.279 964.509 712.4 962.096 712.862C938.176 717.433 909.939 715.083 888.457 703.02C880.673 698.454 878.584 693.48 876.818 685.536C872.867 681.914 871.07 679.374 869.728 674.22C869.304 673.128 865.491 667.714 864.404 665.927C864.102 658.969 864.982 656.869 866.822 650.225C847.69 647.107 824.077 646.836 806.387 643.623C804.987 637.085 804.048 628.176 803.147 621.393C799.647 625.98 794.435 636.835 791.444 642.568C780.541 642.149 785.181 638.707 777.97 635.483C776.49 634.82 767.969 640.15 766.77 640.256C757.745 641.051 744.637 639.63 735.723 638.644C730.356 638.05 729.195 632.392 725.833 627.407C723.102 629.422 719.337 634.428 716.198 637.381C704.675 638.145 688.709 636.453 676.836 636.024C670.716 635.807 661.516 636.04 655.8 635.16C653.244 630.981 650.667 625.758 648.36 621.346C643.073 624.761 636.254 630.562 631.137 634.64C624.811 635.016 616.469 634.735 609.942 634.714L570.574 634.555L545.111 634.65C539.58 634.682 533.508 634.953 528.062 634.168C525.676 633.823 522.204 628.664 520.677 626.68C515.118 644.026 509.8 631.543 504.221 623.541C500.23 626.988 498.988 629.724 495.554 633.579C494.515 634.746 491.754 635.128 490.15 635.202C479.711 635.695 469.09 635.669 458.629 635.96C445.539 636.316 430.614 637.885 417.676 637.344C415.611 635.557 411.245 629.496 408.909 629.555C402.865 629.714 391.226 638.113 385.482 638.797C373.567 639.72 360.387 641.093 348.439 641.104C336.715 641.115 317.075 645.102 306.398 643.05C304.073 640.378 300.277 625.896 298.698 621.203C294.251 627.121 291.068 634.9 286.74 641.035C280.408 650.018 276.627 645.076 270.129 640.118C268.99 642.313 268.048 644.62 267.074 646.895C262.936 647.351 260.76 647.573 256.542 647.451C251.67 644.365 246.623 636.172 243.34 635.658C240.936 637.472 239.302 645.999 238.345 649.467C233.492 649.652 225.24 650.479 220.482 651.142C221.509 656.721 222.448 660.401 222.07 666.07C220.51 668.535 216.875 672.778 216.286 674.586C214.567 680.09 213.2 681.739 209.12 685.796C207.445 693.533 204.747 698.756 197.508 702.972C176.008 715.497 147.974 717.581 123.956 712.639C112.519 710.284 111.195 707.93 103.452 700.055C99.2042 695.734 94.0133 695.585 89.9408 689.142C89.5161 688.469 89.1359 687.774 88.8034 687.053C86.3222 682.827 81.3096 680.944 81.2719 675.169C81.248 671.537 81.9936 667.035 82.3982 663.386L85.2039 638.368C86.3318 628.16 87.0259 612.628 87.7073 601.747C89.6407 567.931 89.7451 534.035 88.0202 500.208C87.912 498.095 87.8181 495.789 87.5668 493.689C86.1616 481.942 86.5455 470.216 85.5639 458.427C77.1782 355.655 59.8611 253.808 33.8088 154.04C30.1106 139.597 25.5065 125.243 21.8183 110.932C16.6241 90.7762 10.08 71.3992 4.51334 51.4428C-5.16391 33.527 21.1915 26.9047 32.6651 21.612C34.2883 20.3124 35.4846 18.0394 36.9401 16.5973C55.4932 -1.78541 161.163 -1.12007 160.104 32.5794C166.245 31.842 175.416 30.1884 181.049 28.7802C183.8 28.0924 192.052 36.0693 195.608 38.0387C196.001 33.63 196.111 31.1012 197.392 26.8311C228.033 17.6581 221.072 29.341 237.72 46.572C238.439 37.8582 239.253 29.0607 239.88 20.3493C247.159 18.9299 314.495 10.4734 317.24 12.2697C321.497 15.0565 323.012 22.5126 325.893 26.6604C327.313 23.817 332.986 10.7856 335.961 10.45C370.424 6.56265 405.697 5.64585 440.398 4.37586C449.943 4.02652 461.752 2.80822 471.189 4.32127C473.332 4.97943 480.23 17.0764 482.148 20.1969C485.783 18.0573 490.752 13.3841 493.865 13.5056C495.755 15.4034 498.228 22.3647 501.011 26.2116C503.834 18.2627 503.544 10.9304 505.922 3.52289Z" fill="#F5BC7C"/>
<path d="M4.51334 51.4428C-5.16391 33.527 21.1915 26.9047 32.6651 21.6119C34.2883 20.3123 35.4846 18.0394 36.9401 16.5972C55.4932 -1.78543 161.163 -1.12009 160.104 32.5794C158.866 33.413 158.77 34.1251 158.176 35.5846C159.231 36.2797 159.512 36.2142 159.648 37.8171C160.713 50.3002 160.465 63.9683 160.766 76.4119C161.195 106.323 162.089 136.227 163.448 166.111C164.076 180.938 164.347 196.273 165.142 211.016C172.022 338.651 183.222 466.575 206.924 592.297C208.829 602.394 216.707 643.57 220.482 651.142C221.509 656.721 222.448 660.401 222.07 666.07C220.51 668.535 216.875 672.778 216.286 674.586C214.567 680.09 213.2 681.739 209.12 685.796C207.445 693.533 204.747 698.756 197.508 702.972C176.008 715.497 147.974 717.581 123.956 712.639C112.519 710.284 111.195 707.93 103.452 700.055C99.2042 695.734 94.0133 695.585 89.9408 689.142C89.5161 688.469 89.1359 687.774 88.8034 687.053C86.3222 682.827 81.3096 680.944 81.2719 675.169C81.248 671.537 81.9936 667.035 82.3982 663.386L85.2039 638.368C86.3318 628.16 87.0259 612.628 87.7073 601.747C89.6407 567.931 89.7451 534.035 88.0202 500.208C87.912 498.095 87.8181 495.789 87.5668 493.689C86.1616 481.942 86.5455 470.216 85.5639 458.427C77.1782 355.654 59.8611 253.808 33.8088 154.04C30.1106 139.597 25.5065 125.243 21.8183 110.932C16.6241 90.7761 10.08 71.3991 4.51334 51.4428Z" fill="#FAC98B"/>
<path d="M4.51334 51.4428C-5.16391 33.527 21.1915 26.9047 32.6651 21.6119C34.2883 20.3123 35.4846 18.0394 36.9401 16.5972C55.4932 -1.78543 161.163 -1.12009 160.104 32.5794C158.866 33.413 158.77 34.1251 158.176 35.5846C147.358 50.0025 117.922 56.966 100.838 59.4296C99.7588 59.585 98.6771 59.725 97.5937 59.8491C92.5779 60.6684 81.0412 61.8981 76.2868 62.3584C71.3314 62.8383 39.8289 63.3092 36.7443 61.8037C23.1443 59.7314 16.4841 58.3558 4.51334 51.4428Z" fill="#C67D29"/>
<path d="M34.2891 24.6281C51.5908 34.0688 75.4568 29.5359 94.3462 27.2441C95.2037 38.0095 96.128 49.1544 97.5936 59.8491C92.5778 60.6684 81.0412 61.8981 76.2867 62.3584C71.3313 62.8383 39.8288 63.3092 36.7442 61.8037L37.4496 61.1875C37.8914 58.5234 34.8258 29.1543 34.2891 24.6281Z" fill="#EDA967"/>
<path d="M88.8032 687.053C95.0589 687.005 101.476 689.683 107.994 690.484C125.684 692.615 143.567 692.61 161.253 690.452C172.85 689.02 186.161 685.934 197.28 682.323C202.203 680.721 212.692 674.512 216.286 674.586C214.567 680.09 213.2 681.739 209.12 685.796C207.445 693.533 204.747 698.756 197.508 702.972C176.008 715.497 147.974 717.581 123.956 712.639C112.519 710.284 111.195 707.93 103.452 700.055C99.204 695.733 94.0132 695.585 89.9407 689.142C89.5159 688.469 89.1357 687.774 88.8032 687.053Z" fill="#EDA967"/>
<path d="M925.497 33.0841C926.25 31.0723 925.985 29.329 926.552 27.0993C928.016 21.3379 934.379 17.7182 939.162 14.9496C966.471 1.82002 1007.82 1.56086 1036.61 10.1078C1041.66 11.6844 1046.15 13.8104 1049.77 17.7683C1050.58 18.6505 1053.18 21.2625 1054.27 21.7692C1064.44 26.4806 1093.91 35.4397 1081.98 51.581C1079.69 52.0533 1077.11 54.6591 1073.95 55.8942C1065.78 59.0833 1057.9 60.4169 1049.28 61.8105C1045.72 63.2301 1014.2 62.7284 1008.91 62.2215C1004.69 61.8163 993.075 60.5108 988.557 59.9084C973.307 57.7417 951.263 52.3243 937.471 44.4735C934.666 42.4135 931.876 40.0759 929.538 37.5207C927.894 35.723 927.592 34.0431 925.497 33.0841Z" fill="#C67D29"/>
<path d="M1051.66 24.6486C1050.66 31.9899 1050.22 40.0412 1049.53 47.4646C1049.23 50.6353 1048.34 58.3234 1048.54 60.9886L1049.28 61.8105C1045.72 63.2301 1014.2 62.7284 1008.91 62.2215C1004.69 61.8164 993.075 60.5108 988.557 59.9084C989.814 48.7571 990.556 38.3309 991.633 27.2998C1009.43 28.9961 1035.84 34.4443 1051.66 24.6486Z" fill="#EDA967"/>
<path d="M869.728 674.22C873.647 675.015 877.242 677.73 881.06 679.263C914.176 692.525 954.376 695.696 989.246 688.368C993.006 687.578 992.884 686.809 996.755 687.801C996.347 688.718 993.918 692.52 993.017 692.987C985.184 697.043 980.168 703.619 973.693 708.773C971.8 710.279 964.509 712.4 962.096 712.862C938.176 717.433 909.939 715.083 888.457 703.02C880.673 698.454 878.584 693.48 876.818 685.536C872.867 681.914 871.07 679.374 869.728 674.22Z" fill="#EDA967"/>
<path d="M558.59 11.9794C558.792 11.9539 559.433 12.194 559.672 12.2672C562.572 16.9061 571.815 43.3377 573.788 49.4074C585.157 40.6979 599.57 26.5235 610.191 16.5334C620.643 15.9839 634.18 16.7505 644.664 17.2293L679.731 18.5328C687.786 18.802 695.841 19.0201 703.896 19.1872C709.013 19.2712 715.588 19.103 720.504 19.8701C725.912 34.6702 734.567 54.3224 740.803 69.1772C745.782 56.3179 756.186 42.6311 761.314 29.4962C762.003 27.7311 762.973 25.5523 764.85 24.9896C766.972 26.9501 776.071 45.3665 778.977 49.9764C785.054 44.6835 795.012 37.429 801.614 32.442C803.205 31.2425 804.96 30.7831 806.928 31.1692C819.713 33.6732 832.863 37.5186 845.367 40.866C864.24 45.9185 883.695 49.956 902.504 54.998C906.137 61.8609 907.568 108.696 907.595 118.919C907.234 176.385 904.286 233.806 898.755 291.007C897.822 301.449 895.902 314.14 894.815 325.059C887.216 403.047 878.027 480.871 867.262 558.486C866.26 565.937 858.385 627.47 857.044 630C855.633 630.212 835.377 628.133 834.237 627.534C828.669 624.623 815.985 606.037 811.218 601.232L810.767 600.787C804.176 609.961 795.951 620.614 788.267 629.082C786.661 630 781.098 629.279 779.518 628.886C769.517 626.389 758.408 630.09 748.842 629.957C747.06 629.931 737.133 611.414 735.452 608.714C732.366 610.984 705.195 627.38 702.676 627.285C696.567 627.046 675.298 628.314 670.743 627.046C668.251 625.116 665.042 601.343 664.215 596.348C655.126 601.423 646.536 607.436 637.845 613.158C633.555 615.979 629.175 619.166 624.519 621.351C618.172 624.331 564.227 626.574 553.77 627.449C549.257 620.72 544.045 611 539.935 603.751C535.449 607.394 524.217 615.449 519.183 618.169C517.746 617.894 517.8 617.384 516.717 615.91C514.369 612.055 512.019 607.712 509.78 603.756C505.39 609.658 499.315 615.709 494.203 621.086C478.746 622.465 460.973 622.984 445.467 622.995C440.745 617.74 431.106 601.45 426.877 594.673C413.896 602.16 402.334 612.644 389.467 620.322C382.61 624.416 368.773 624.718 360.556 625.296L328.32 627.539C321.869 620.423 308.415 600.612 301.907 591.586C292.635 601.444 282.666 612.644 273.158 622.035C268.189 616.202 264.249 609.733 260.5 603.083C252.989 604.647 244.833 606.896 237.216 608.63C234.283 601.227 230.563 592.62 228.304 585.08C220.118 557.749 214.278 527.483 210.711 499.259C203.789 442.36 199.443 385.177 197.686 327.885C195.244 271.061 194.206 214.186 194.572 157.31L194.706 108.507C194.87 91.8366 194.945 75.4817 198.389 59C199.351 54.3972 208.719 43.351 212.196 38.8617C213.633 40.5062 215.289 42.0346 216.821 43.6004C228.09 55.1221 239.662 66.504 250.589 78.3479C251.608 62.5556 254.765 45.8584 255.637 30.0009C269.798 26.4162 284.195 23.1111 298.27 19.2712C305.177 29.7812 312.623 46.7323 319.65 55.5988C325.199 49.6168 349.908 22.372 354.646 19.3886C365.08 18.4851 380.988 18.9682 392.24 18.5133C415.959 17.5545 440.324 16.5577 464.039 16.1859C470.199 29.0112 475.008 43.7272 481.502 57.0529C483.673 48.0438 488.453 31.3552 491.733 22.8613C497.709 34.0134 503.361 45.3758 509.483 56.4112C514.282 43.1753 518.988 29.063 524.323 16.113C533.455 15.6185 548.101 12.9031 558.59 11.9794Z" fill="#FAC98B"/>
</svg>
