<svg width="692" height="156" viewBox="0 0 692 156" fill="none" xmlns="http://www.w3.org/2000/svg">
<path d="M652.226 3.24827C655.981 2.27402 660.537 1.51546 663.971 4.01104C678.01 14.2093 684.825 39.1688 687.318 55.7238C690.168 74.6399 690.766 99.7232 682.634 117.164C681.479 119.462 679.378 121.152 677.527 122.683C674.562 132.299 668.737 158.914 654.468 154.46C653.766 154.237 653.07 153.998 652.378 153.743C649.136 153.658 644.563 152.224 641.263 151.588C633.746 150.139 625.904 148.085 618.427 146.712C587.08 140.805 555.622 135.509 524.07 130.825C428.53 117.058 331.969 111.662 235.49 114.698C220.833 115.279 206.538 115.72 191.933 117.153C185.519 117.578 179.022 117.805 172.634 118.485C134.771 122.518 97.2577 127.33 60.0658 135.724C55.3983 136.778 46.7035 140.498 42.5222 137.227C39.8326 135.123 39.0174 133.561 35.5379 132.201C34.9574 132.024 34.3924 131.799 33.8487 131.53C28.6823 128.959 26.6228 124.896 22.9144 120.777C20.6535 118.266 15.1822 115.965 13.3723 113.005C-0.716558 89.9627 -0.971681 54.1202 9.93155 29.7532C11.5026 26.2423 15.5132 20.6005 19.4316 19.2816C26.7929 17.2614 29.2239 11.2108 36.0634 8.92636C38.4328 8.58623 42.5928 1.98316 45.3401 2.34119C66.782 5.13536 88.1779 8.38073 109.793 9.86283C116.489 10.322 123.107 11.4094 129.779 11.945C191.236 16.5112 252.836 18.9005 314.463 19.1084C389.858 18.8496 465.229 16.3879 540.483 11.7263C547.169 11.2936 554.022 10.3189 560.411 9.97311C576.881 9.08182 593.382 7.84128 609.842 6.63225C624.347 5.56662 637.383 3.68098 652.226 3.24827Z" fill="#FAC88A"/>
<path d="M652.226 3.24817C655.981 2.27392 660.537 1.51536 663.971 4.01094C678.01 14.2092 684.825 39.1687 687.318 55.7237C690.168 74.6398 690.766 99.7231 682.634 117.164C681.479 119.462 679.378 121.152 677.527 122.682C674.562 132.299 668.737 158.914 654.468 154.46C653.766 154.237 653.07 153.998 652.378 153.743C652.239 153.153 647.95 148.503 647.147 146.973C643.064 139.214 640.456 131.384 638.737 122.839C638.565 122.517 637.826 118.162 637.67 117.398C634.658 102.483 634.168 86.5519 634.462 71.3669C634.516 68.6197 634.421 64.2203 634.844 61.6327C636.326 44.4623 638.927 25.1614 647.572 9.67287C648.383 8.21791 651.388 5.00566 652.661 3.60595L652.226 3.24817Z" fill="#C77D29"/>
<path d="M638.737 122.839C638.565 122.517 637.826 118.162 637.67 117.398C634.658 102.484 634.168 86.552 634.462 71.3669C634.516 68.6197 634.421 64.2203 634.844 61.6328C634.887 62.6927 634.773 63.9029 635.269 64.7123C643.985 65.2961 657.275 64.8875 666.329 64.8902C665.738 78.2569 663.965 110.501 673.431 120.84C673.819 121.262 674.214 121.679 674.616 122.089C666.923 122.19 659.233 122.229 651.54 122.207C649.257 122.205 640.713 122.073 639.085 122.368L638.737 122.839Z" fill="#ECAA67"/>
<path d="M35.5379 132.2C34.9574 132.024 34.3924 131.799 33.8487 131.53C28.6823 128.959 26.6228 124.895 22.9144 120.777C20.6535 118.266 15.1822 115.965 13.3723 113.005C-0.716558 89.9626 -0.971681 54.1201 9.93155 29.7531C11.5026 26.2422 15.5132 20.6004 19.4316 19.2815C26.7929 17.2613 29.2239 11.2107 36.0634 8.92627C35.7942 11.456 33.69 15.9367 32.7957 18.5689C25.0833 41.269 24.7963 65.0364 26.2618 88.747C27.1564 103.222 30.2999 116.407 35.2981 130.011C35.469 130.48 35.547 131.681 35.5379 132.2Z" fill="#ECAA67"/>
</svg>
