<svg width="785" height="268" viewBox="0 0 785 268" fill="none" xmlns="http://www.w3.org/2000/svg">
<g clip-path="url(#clip0_51_3402)">
<path d="M693.73 619.634C678.964 620.211 662.989 619.959 647.939 620.402L597.895 621.723C570.675 622.549 539.789 624.869 513.547 619.323C500.492 616.564 487.075 607.197 475.809 604.238C476.007 607.291 476.093 610.347 476.068 613.402C469.353 614.25 455.612 613.992 448.109 614.012C433.545 614.051 418.982 614.158 404.42 614.333L319.7 615.623C297.727 616.045 275.503 617.045 253.478 616.692C248.562 616.614 230.9 616.8 228.063 615.182C222.768 612.16 219.411 600.009 215.302 595.585C209.419 600.201 203.357 607.507 195.958 610.191C156.329 610.174 116.769 609.338 77.1008 610.326C72.996 610.428 67.7837 610.577 63.7325 610.465C63.8296 608.361 64.1065 605.617 63.6207 603.591C60.8907 601.208 58.3453 599.149 53.9783 597.956C52.793 597.491 50.9228 596.885 50.2136 596.184C49.0089 596.614 48.8486 596.783 47.435 596.257L45.181 596.131C37.6565 595.32 34.5379 595.607 27.6497 597.707C22.894 599.346 27.7226 600.535 21.0335 601.065C20.0717 595.714 20.436 589.591 20.3146 584.373C20.2417 581.204 18.3181 571.347 21.6213 569.64C29.6268 565.497 43.714 561.768 52.7784 558.447C44.1804 555.951 33.8724 553.865 26.1244 550.776C21.0287 547.836 21.291 539.869 20.2757 536.021C14.8788 515.489 7.56321 494.35 13.917 473.565C16.5159 465.064 17.1037 455.096 20.9461 446.904C22.5054 443.579 45.5308 437.635 51.02 436.371C44.7341 434.129 29.8308 430 25.5074 427.724C24.5942 423.992 25.216 417.047 25.3229 413.053C25.4589 406.258 25.4491 399.462 25.3034 392.668C24.5796 366.185 22.9377 339.716 20.3777 313.28C20.0668 310.38 17.2251 292.559 19.1973 291.397C23.5984 288.811 34.5622 284.332 39.9056 281.896C37.0881 280.239 23.1272 270.672 21.1453 268.89C36.4275 264.891 55.8388 263.078 68.7942 259.548C62.0031 259.041 25.5463 257.495 22.6074 256.58C20.6206 254.218 21.5387 235.444 21.5387 231.762C21.5436 211.38 21.2473 191.001 20.6498 170.622C20.3437 162.906 18.9933 154.935 19.2508 147.144C19.4256 141.736 12.9552 118.893 22.5248 116.585C30.3457 114.697 44.4961 111.573 52.5161 110.049C47.8624 108.37 31.9536 102.405 29.0244 100.209L28.7815 99.5391C31.4047 97.2651 69.1002 93.0722 76.4207 91.4087C63.6596 89.9758 37.7196 87.2408 28.6601 81.1975C26.2944 75.5748 24.9391 56.8127 25.8718 50.7227C28.9855 48.5297 29.1313 48.9222 33.2263 49.1028C35.9126 41.2279 37.0736 42.1064 33.644 33.8109C32.8911 33.1287 32.2839 32.7331 32.1527 31.9107C30.9432 31.0416 26.1001 27.4188 25.1528 26.9422C24.7545 24.095 24.1959 4.11174 25.1188 1.90003C27.8391 0.94059 67.2834 2.115 73.1807 2.66325C77.2028 3.03395 85.7232 11.0085 88.7398 13.5193C97.9694 9.90892 109.701 6.83746 120.567 6.71597C136.17 6.54153 151.681 7.58195 167.196 7.98379L241.669 9.77185C260.701 10.2703 278.184 10.9587 297.469 10.9899C309.751 11.0646 322.035 10.9307 334.306 10.588C341.524 10.3824 370.813 7.98379 375.297 8.99308C378.802 11.5132 384.551 25.3753 385.884 29.1414C389.655 25.7865 404.215 10.2298 407.295 9.35444C410.89 9.24541 421.844 12.3356 425.459 13.4258C438.515 17.3664 440.416 15.1142 452.914 11.6845C469.508 7.13026 489.04 12.4352 506.774 13.1206C511.817 13.323 516.875 13.3448 521.922 13.1891C531.275 12.9399 538.567 11.2204 546.916 14.6501C554.217 17.6468 561.823 20.9301 569.805 23.0857C582.791 19.7899 583.547 12.8745 596.34 12.9959C605.239 13.1143 614.137 13.2732 623.033 13.4757C634.97 13.7467 638.575 13.7405 647.185 19.6186C651.375 22.4814 656.357 25.6245 660.655 28.4654C667.843 11.5038 680.564 15.0083 703.517 15.784C722.31 16.4194 742.307 15.6843 760.731 18.2604C764.475 18.7838 767.88 19.8273 769.63 22.1294C771.501 24.5903 772.38 28.263 771.006 30.8921C763.039 30.8828 760.019 31.8484 754.069 35.0694C752.702 36.3777 751.474 38.4617 750.733 39.9601C750.366 40.8604 750.298 40.636 748.757 41.3401C749.367 42.8664 748.296 45.9037 747.806 47.5422C749.947 53.9374 755.052 56.2924 764.503 58.1303C764.112 62.6036 762.313 85.5617 757.073 86.8171C750.678 88.3466 731.484 92.2436 724.139 93.365C726.712 94.0877 729.272 94.8291 731.817 95.5892C767.868 106.352 759.145 103.816 758.693 126.223C758.459 146.729 759.116 167.236 760.664 187.721C761.459 198.661 763.491 210.642 762.951 221.513C762.772 225.13 750.372 229.986 746.994 234.41L746.687 234.815C749.121 241.381 755.285 249.234 758.102 256.305C758.917 258.287 759.388 260.318 759.508 262.364C760.256 273.286 757.95 284.942 757.371 295.858C757.254 298.041 756.933 299.92 756.108 302.054C752.625 303.848 740.138 305.546 735.105 306.346C736.088 308.511 739.861 313.869 741.474 316.139C746.55 323.282 750.174 329.876 752.162 337.651C753.328 342.21 752.409 347.61 753.085 352.4C753.732 357.112 754.887 361.868 755.4 366.582C757.969 390.205 755.514 413.593 751.468 437.071C750.954 440.055 748.063 446.335 748.572 448.884C750.047 456.262 757.285 463.733 760.16 470.804L760.338 471.25C755.302 473.689 741.112 475.629 732.512 478.398C736.864 481.728 744.322 487.429 746.923 491.26C744.912 497.002 740.849 496.804 742.489 503.811C747.522 525.312 746.896 546.949 740.029 568.268C737.755 575.33 734.774 582.228 734.449 589.477C733.992 599.193 735.433 608.908 738.739 618.395C732.758 618.954 727.851 619.003 721.895 618.878L718.319 619.097C714.879 620.246 710.045 620.306 706.171 620.441C702.111 620.179 697.756 619.949 693.73 619.634Z" fill="#FBCA8C"/>
<path d="M718.32 619.097C714.879 620.246 710.045 620.306 706.171 620.441C702.112 620.179 697.756 619.949 693.731 619.634C693.298 618.274 693.266 617.902 692.079 616.762C685.35 611.119 689.16 610.691 692.886 605.328C694.992 604.562 701.27 602.506 702.365 601.458C703.425 602.014 704.57 601.692 705.754 601.545L704.369 598.148C707.971 595.031 714.194 583.885 715.134 579.999C716.637 573.786 715.609 566.1 716.213 559.616C717.46 546.784 718.909 533.96 720.56 521.148C721.237 515.929 723.444 502.583 722.947 498.055C722.581 494.721 709.612 480.243 706.318 476.172C715.531 474.126 734.691 470.251 742.552 467.823C737.349 458.556 731.783 443.661 731.458 433.792C731.136 423.959 732.883 414.094 733.161 404.276C733.728 384.24 733.819 362.89 728.179 343.127C724.709 330.966 716.278 314.484 707.075 303.655C718.983 299.901 731.443 296.549 743.176 292.808C743.297 287.254 744.827 270.308 743.345 265.919C741.02 259.034 729.114 244.736 726.85 237.266C726.33 235.547 736.825 228.108 738.601 225.619C740.408 223.086 745.605 215.747 745.96 213.28C747.116 205.24 745.839 194.671 745.362 186.571L743.708 151.424L742.709 127.731C742.593 124.771 742.549 116.971 741.615 114.389C730.866 106.804 717.521 97.6328 706.236 90.518C714.887 85.4684 725.828 79.8863 732.228 73.6436C735.512 70.4413 737.955 64.1894 740.083 60.2862C742.494 55.9998 745.069 51.7508 747.806 47.5424C749.947 53.9376 755.052 56.2926 764.503 58.1305C764.113 62.6038 762.314 85.5619 757.073 86.8173C750.678 88.3468 731.484 92.2438 724.14 93.3652C726.712 94.0879 729.272 94.8293 731.817 95.5894C767.869 106.352 759.145 103.816 758.694 126.223C758.459 146.73 759.117 167.236 760.665 187.721C761.459 198.661 763.492 210.642 762.952 221.513C762.772 225.13 750.372 229.986 746.994 234.41L746.687 234.815C749.122 241.381 755.285 249.234 758.103 256.306C758.917 258.287 759.389 260.318 759.508 262.364C760.256 273.286 757.951 284.943 757.371 295.858C757.255 298.041 756.934 299.92 756.109 302.054C752.626 303.848 740.138 305.546 735.106 306.346C736.089 308.511 739.861 313.869 741.474 316.139C746.551 323.282 750.174 329.876 752.163 337.652C753.329 342.21 752.409 347.61 753.086 352.4C753.733 357.112 754.887 361.868 755.4 366.583C757.969 390.205 755.514 413.593 751.468 437.071C750.954 440.055 748.063 446.335 748.573 448.884C750.047 456.262 757.285 463.734 760.16 470.804L760.338 471.251C755.303 473.689 741.113 475.629 732.513 478.398C736.864 481.728 744.323 487.429 746.923 491.261C744.913 497.002 740.849 496.804 742.49 503.811C747.523 525.312 746.897 546.949 740.03 568.268C737.755 575.33 734.775 582.228 734.449 589.477C733.992 599.193 735.433 608.908 738.739 618.395C732.758 618.955 727.851 619.003 721.895 618.878L718.32 619.097Z" fill="#EBAA6E"/>
<path d="M27.6506 597.707C22.895 599.346 27.7235 600.536 21.0345 601.066C20.0727 595.714 20.4369 589.591 20.3155 584.373C20.2426 581.204 18.319 571.347 21.6222 569.64C29.6277 565.497 43.7149 561.768 52.7794 558.447C44.1813 555.951 33.8733 553.866 26.1253 550.776C21.0296 547.837 21.2919 539.869 20.2767 536.021C14.8798 515.489 7.56414 494.35 13.918 473.565C16.5168 465.064 17.1046 455.097 20.947 446.904C22.5063 443.58 45.5317 437.635 51.0209 436.371C44.7351 434.129 29.8317 430 25.5084 427.724C24.5951 423.992 25.2169 417.047 25.3238 413.053C25.4598 406.258 25.4501 399.463 25.3043 392.668C24.5805 366.186 22.9386 339.716 20.3786 313.281C20.0678 310.38 17.226 292.559 19.1983 291.397C23.5993 288.812 34.5631 284.332 39.9065 281.896C37.0891 280.239 23.1281 270.672 21.1462 268.891C36.4284 264.891 55.8397 263.078 68.7951 259.549C62.0041 259.041 25.5473 257.496 22.6084 256.58C20.6216 254.219 21.5396 235.444 21.5396 231.762C21.5445 211.38 21.2482 191.001 20.6507 170.622C20.3447 162.906 18.9942 154.935 19.2517 147.144C19.4266 141.736 12.9561 118.893 22.5258 116.585C30.3466 114.697 44.497 111.573 52.517 110.05C47.8634 108.371 31.9545 102.405 29.0253 100.209L28.7824 99.5394C31.4056 97.2654 69.1011 93.0725 76.4216 91.409C63.6605 89.9761 37.7206 87.2411 28.661 81.1978C26.2953 75.5751 24.94 56.813 25.8727 50.723C28.9865 48.53 29.1322 48.9225 33.2272 49.1031C33.5284 56.7195 36.2827 67.965 39.7899 75.1951C53.0757 78.1201 66.9735 80.3786 80.5313 82.7959L119.407 89.9481C101.346 93.4027 82.2703 97.5894 64.122 101.231C62.7667 106.349 62.6501 114.168 61.9361 119.694C39.5665 125.578 42.8697 126.637 42.5539 141.257C42.4082 149.169 42.1848 157.078 41.8836 164.987L37.6574 241.397C56.6364 248.428 76.4508 257.178 95.5511 264.062C80.915 265.769 61.2123 269.81 46.0272 272.099C49.0972 276.918 52.4684 283.071 55.0479 288.03C42.2382 298.278 34.2279 302.125 34.2036 316.217C34.1599 340.28 34.9954 364.27 36.1418 388.326C36.5644 397.142 36.409 406.519 38.3812 415.24C39.241 418.1 59.6869 434.058 63.7965 436.776C58.4385 440.668 34.5388 453.684 33.2807 457.155C28.7339 469.682 26.6936 485.147 26.2905 498.222C25.8824 511.243 28.9379 529.448 39.0127 541C40.3826 542.442 49.2527 547.695 51.633 549.136C57.8896 552.857 64.0103 556.672 69.9852 560.58C65.249 564.539 47.3873 580.347 45.726 584.395C44.2687 587.946 44.9585 592.473 45.182 596.131C37.6574 595.32 34.5388 595.607 27.6506 597.707Z" fill="#EBAA6E"/>
<path d="M378.917 45.3025C373.55 38.0942 367.489 27.7397 361.895 21.2167C340.53 20.2105 317.479 21.6621 294.647 20.8335C260.735 19.5283 226.868 17.8431 193.049 15.7809L161.848 13.9056C153.138 13.3542 143.102 11.9618 134.451 12.8776C128.718 13.4819 105.499 23.5561 99.0964 26.2226C91.8196 22.3194 78.0966 13.8059 71.3202 11.1643L70.9316 11.0117C55.6882 10.7843 43.7189 13.7529 37.1125 22.768C35.0723 25.556 34.2027 27.3347 33.9599 30.3844C34.4553 30.8921 34.193 30.7862 34.9168 31.0603C34.295 31.3936 32.9688 31.6896 32.1528 31.9107C30.9432 31.0416 26.1001 27.4188 25.1529 26.9422C24.7546 24.095 24.1959 4.11177 25.1189 1.90006C27.8392 0.94062 67.2835 2.11503 73.1807 2.66328C77.2029 3.03398 85.7232 11.0086 88.7398 13.5193C97.9694 9.90895 109.701 6.83749 120.567 6.716C136.17 6.54156 151.681 7.58198 167.196 7.98382L241.669 9.77188C260.701 10.2703 278.184 10.9587 297.469 10.9899C309.751 11.0646 322.035 10.9307 334.306 10.588C341.524 10.3824 370.813 7.98382 375.297 8.99311C378.802 11.5132 384.551 25.3753 385.884 29.1415C389.655 25.7865 404.215 10.2298 407.295 9.35447C410.89 9.24544 421.844 12.3356 425.459 13.4259C438.515 17.3664 440.416 15.1142 452.914 11.6845C469.508 7.13029 489.04 12.4353 506.774 13.1206C511.817 13.3231 516.875 13.3449 521.922 13.1891C531.275 12.9399 538.567 11.2204 546.916 14.6501C554.217 17.6468 561.823 20.9301 569.805 23.0857C582.791 19.79 583.547 12.8745 596.34 12.996C605.239 13.1143 614.137 13.2732 623.033 13.4757C634.97 13.7467 638.575 13.7405 647.185 19.6186C651.375 22.4814 656.357 25.6245 660.655 28.4655C667.843 11.5039 680.564 15.0083 703.517 15.784C722.31 16.4195 742.307 15.6843 760.731 18.2605C764.475 18.7838 767.88 19.8274 769.63 22.1294C771.501 24.5903 772.38 28.263 771.006 30.8921C763.039 30.8828 760.019 31.8484 754.069 35.0694C747.069 34.624 738.854 32.9823 731.97 31.8422C719.819 29.8236 707.68 27.478 695.488 25.5591C686.702 28.0886 677.954 31.1631 669.292 33.8857C664.674 35.3405 659.019 37.4493 654.215 38.4213C646.492 37.2126 636.938 34.9479 629.191 33.325L588.263 24.8862C579.726 29.4841 562.637 37.549 553.325 41.6609C549.215 37.2749 545.313 33.8359 540.929 29.6305C522.261 28.7302 502.92 29.129 484.21 29.2318C472.885 29.2941 460.281 30.2006 449.138 29.1508C436.019 27.9141 428.103 25.3379 422.814 17.5222C410.18 26.2693 392.58 36.5865 378.917 45.3025Z" fill="#EBAA6E"/>
<path d="M748.758 41.3401C743.973 40.309 733.924 38.5646 730.694 36.5429L730.366 35.9728C733.733 34.543 747.114 38.7048 750.733 39.9601C750.366 40.8604 750.298 40.6361 748.758 41.3401Z" fill="#898B84"/>
<path d="M33.645 33.811C32.8921 33.1288 32.2849 32.7332 32.1537 31.9108C32.9698 31.6896 34.296 31.3937 34.9177 31.0604C38.8719 29.5714 43.5109 27.4594 47.5768 26.0171C48.4609 25.7025 49.7434 26.0701 50.5449 26.3006L50.7295 26.9267C48.9516 28.6088 37.604 32.2068 33.645 33.811Z" fill="#898B84"/>
<path d="M25.8724 50.723C21.413 51.3366 18.1001 50.3086 14.4714 48.8134C8.85108 46.0877 6.12588 43.5707 4.34311 39.2719C2.50691 29.0015 7.17032 21.9178 25.1534 26.9424C26.1007 27.4191 30.9437 31.0419 32.1533 31.911C32.2844 32.7334 32.8917 33.129 33.6446 33.8112C37.0741 42.1067 35.9132 41.2282 33.2269 49.1031C29.1319 48.9225 28.9861 48.5299 25.8724 50.723Z" fill="#BABDBB"/>
<path d="M14.4715 48.8132C8.85114 46.0875 6.12593 43.5706 4.34317 39.2717C5.62559 37.9291 5.81994 36.4869 6.87406 35.1879C14.1946 26.1479 29.9188 39.0007 23.9779 45.2434C21.5199 47.8226 17.935 47.2027 14.3986 47.8039L14.4715 48.8132Z" fill="#CED1CE"/>
<path d="M764.503 58.1306C755.052 56.2927 749.947 53.9377 747.806 47.5425C748.297 45.9039 749.367 42.8667 748.757 41.3403C750.298 40.6363 750.366 40.8606 750.733 39.9604C751.474 38.462 752.702 36.378 754.069 35.0697C760.019 31.8487 763.04 30.883 771.006 30.8924C772.019 31.5372 773.009 32.1976 773.976 32.8673C782.168 38.6489 780.188 49.6545 771.362 54.7321C769.24 55.9532 766.735 56.7942 764.503 58.1306Z" fill="#C5C8C7"/>
</g>
<defs>
<clipPath id="clip0_51_3402">
<rect width="785" height="268" fill="white"/>
</clipPath>
</defs>
</svg>
